<mxfile host="app.diagrams.net" modified="2020-12-06T00:55:01.625Z" agent="5.0 (Windows)" etag="VJxct2tkMtOC5SJ6V3QC" version="13.10.9" type="github">
  <diagram name="Page-1" id="e7e014a7-5840-1c2e-5031-d8a46d1fe8dd">
    <mxGraphModel dx="942" dy="583" grid="1" gridSize="10" guides="1" tooltips="1" connect="1" arrows="1" fold="1" page="1" pageScale="1" pageWidth="827" pageHeight="1169" background="#ffffff" math="0" shadow="0">
      <root>
        <mxCell id="0" />
        <mxCell id="1" parent="0" />
        <mxCell id="2" value="User" style="swimlane;whiteSpace=wrap" parent="1" vertex="1">
          <mxGeometry x="20" y="40" width="280" height="1070" as="geometry" />
        </mxCell>
        <mxCell id="XWMNKZMhFV5grl7TRYzP-42" style="edgeStyle=orthogonalEdgeStyle;rounded=0;orthogonalLoop=1;jettySize=auto;html=1;strokeColor=#FF0000;" edge="1" parent="2" target="XWMNKZMhFV5grl7TRYzP-41">
          <mxGeometry relative="1" as="geometry">
            <mxPoint x="74.5" y="71" as="sourcePoint" />
          </mxGeometry>
        </mxCell>
        <mxCell id="5" value="" style="ellipse;shape=startState;fillColor=#000000;strokeColor=#ff0000;" parent="2" vertex="1">
          <mxGeometry x="60" y="41" width="30" height="30" as="geometry" />
        </mxCell>
        <mxCell id="XWMNKZMhFV5grl7TRYzP-41" value="Act" style="rounded=1;whiteSpace=wrap;html=1;" vertex="1" parent="2">
          <mxGeometry x="29.5" y="112" width="90.5" height="38" as="geometry" />
        </mxCell>
        <mxCell id="XWMNKZMhFV5grl7TRYzP-44" value="" style="endArrow=classic;html=1;strokeColor=#FF0000;" edge="1" parent="2">
          <mxGeometry width="50" height="50" relative="1" as="geometry">
            <mxPoint x="74" y="150" as="sourcePoint" />
            <mxPoint x="74.25" y="212" as="targetPoint" />
          </mxGeometry>
        </mxCell>
        <mxCell id="XWMNKZMhFV5grl7TRYzP-46" value="" style="html=1;points=[];perimeter=orthogonalPerimeter;fillColor=#000000;strokeColor=none;rotation=90;" vertex="1" parent="2">
          <mxGeometry x="380.75" y="-133.25" width="5" height="692.5" as="geometry" />
        </mxCell>
        <mxCell id="XWMNKZMhFV5grl7TRYzP-57" value="" style="rhombus;whiteSpace=wrap;html=1;" vertex="1" parent="2">
          <mxGeometry x="70" y="260" width="44" height="48" as="geometry" />
        </mxCell>
        <mxCell id="XWMNKZMhFV5grl7TRYzP-60" value="" style="endArrow=classic;html=1;strokeColor=#FF0000;entryX=0.5;entryY=0;entryDx=0;entryDy=0;" edge="1" parent="2" source="XWMNKZMhFV5grl7TRYzP-46" target="XWMNKZMhFV5grl7TRYzP-57">
          <mxGeometry width="50" height="50" relative="1" as="geometry">
            <mxPoint x="190" y="290" as="sourcePoint" />
            <mxPoint x="190" y="340" as="targetPoint" />
          </mxGeometry>
        </mxCell>
        <mxCell id="XWMNKZMhFV5grl7TRYzP-62" value="&lt;div&gt;Enter in stand-by&lt;/div&gt;&lt;div&gt;mode&lt;br&gt;&lt;/div&gt;" style="rounded=1;whiteSpace=wrap;html=1;" vertex="1" parent="2">
          <mxGeometry x="150" y="315" width="104" height="45" as="geometry" />
        </mxCell>
        <mxCell id="XWMNKZMhFV5grl7TRYzP-61" style="edgeStyle=orthogonalEdgeStyle;rounded=0;orthogonalLoop=1;jettySize=auto;html=1;strokeColor=#FF0000;entryX=0.608;entryY=-0.033;entryDx=0;entryDy=0;entryPerimeter=0;" edge="1" parent="2" source="XWMNKZMhFV5grl7TRYzP-57">
          <mxGeometry relative="1" as="geometry">
            <mxPoint x="193.23199999999997" y="313.515" as="targetPoint" />
            <Array as="points">
              <mxPoint x="193" y="284" />
            </Array>
          </mxGeometry>
        </mxCell>
        <mxCell id="XWMNKZMhFV5grl7TRYzP-63" value="[Lock on]" style="text;html=1;align=center;verticalAlign=middle;resizable=0;points=[];autosize=1;" vertex="1" parent="2">
          <mxGeometry x="114" y="260" width="60" height="20" as="geometry" />
        </mxCell>
        <mxCell id="XWMNKZMhFV5grl7TRYzP-64" value="[Lock off]" style="text;html=1;align=center;verticalAlign=middle;resizable=0;points=[];autosize=1;" vertex="1" parent="2">
          <mxGeometry x="20" y="340" width="60" height="20" as="geometry" />
        </mxCell>
        <mxCell id="XWMNKZMhFV5grl7TRYzP-67" style="edgeStyle=orthogonalEdgeStyle;rounded=0;orthogonalLoop=1;jettySize=auto;html=1;entryX=0.5;entryY=0;entryDx=0;entryDy=0;strokeColor=#FF0000;" edge="1" parent="2" source="XWMNKZMhFV5grl7TRYzP-65" target="XWMNKZMhFV5grl7TRYzP-66">
          <mxGeometry relative="1" as="geometry" />
        </mxCell>
        <mxCell id="XWMNKZMhFV5grl7TRYzP-65" value="Active mode" style="rounded=1;whiteSpace=wrap;html=1;" vertex="1" parent="2">
          <mxGeometry x="45" y="460" width="94" height="50" as="geometry" />
        </mxCell>
        <mxCell id="XWMNKZMhFV5grl7TRYzP-59" style="edgeStyle=orthogonalEdgeStyle;rounded=0;orthogonalLoop=1;jettySize=auto;html=1;exitX=0.5;exitY=1;exitDx=0;exitDy=0;strokeColor=#FF0000;entryX=0.5;entryY=0;entryDx=0;entryDy=0;" edge="1" parent="2" source="XWMNKZMhFV5grl7TRYzP-57" target="XWMNKZMhFV5grl7TRYzP-65">
          <mxGeometry relative="1" as="geometry">
            <mxPoint x="92" y="410" as="targetPoint" />
          </mxGeometry>
        </mxCell>
        <mxCell id="XWMNKZMhFV5grl7TRYzP-66" value="" style="rhombus;whiteSpace=wrap;html=1;" vertex="1" parent="2">
          <mxGeometry x="70" y="570" width="44" height="48" as="geometry" />
        </mxCell>
        <mxCell id="XWMNKZMhFV5grl7TRYzP-72" value="&lt;div&gt;[Danger]&lt;br&gt;&lt;/div&gt;" style="text;html=1;align=center;verticalAlign=middle;resizable=0;points=[];autosize=1;" vertex="1" parent="2">
          <mxGeometry x="20" y="630" width="60" height="20" as="geometry" />
        </mxCell>
        <mxCell id="XWMNKZMhFV5grl7TRYzP-68" style="edgeStyle=orthogonalEdgeStyle;rounded=0;orthogonalLoop=1;jettySize=auto;html=1;strokeColor=#FF0000;entryX=1;entryY=0.5;entryDx=0;entryDy=0;" edge="1" parent="2" source="XWMNKZMhFV5grl7TRYzP-66" target="XWMNKZMhFV5grl7TRYzP-65">
          <mxGeometry relative="1" as="geometry">
            <mxPoint x="210" y="480" as="targetPoint" />
            <Array as="points">
              <mxPoint x="220" y="594" />
              <mxPoint x="220" y="485" />
            </Array>
          </mxGeometry>
        </mxCell>
        <mxCell id="XWMNKZMhFV5grl7TRYzP-73" value="&lt;div&gt;[No danger]&lt;br&gt;&lt;/div&gt;" style="text;html=1;align=center;verticalAlign=middle;resizable=0;points=[];autosize=1;" vertex="1" parent="2">
          <mxGeometry x="130" y="565" width="80" height="20" as="geometry" />
        </mxCell>
        <mxCell id="XWMNKZMhFV5grl7TRYzP-74" value="Press Backup Button" style="rounded=1;whiteSpace=wrap;html=1;" vertex="1" parent="2">
          <mxGeometry x="45" y="790" width="94" height="50" as="geometry" />
        </mxCell>
        <mxCell id="XWMNKZMhFV5grl7TRYzP-84" style="edgeStyle=orthogonalEdgeStyle;rounded=0;orthogonalLoop=1;jettySize=auto;html=1;entryX=0.5;entryY=0;entryDx=0;entryDy=0;strokeColor=#FF0000;" edge="1" parent="2" source="XWMNKZMhFV5grl7TRYzP-83" target="XWMNKZMhFV5grl7TRYzP-74">
          <mxGeometry relative="1" as="geometry" />
        </mxCell>
        <mxCell id="XWMNKZMhFV5grl7TRYzP-83" value="" style="rhombus;whiteSpace=wrap;html=1;" vertex="1" parent="2">
          <mxGeometry x="70" y="670" width="44" height="48" as="geometry" />
        </mxCell>
        <mxCell id="XWMNKZMhFV5grl7TRYzP-85" value="&lt;div&gt;[Critical &lt;br&gt;&lt;/div&gt;&lt;div&gt;Situation]&lt;br&gt;&lt;/div&gt;" style="text;html=1;align=center;verticalAlign=middle;resizable=0;points=[];autosize=1;" vertex="1" parent="2">
          <mxGeometry x="15" y="725" width="70" height="30" as="geometry" />
        </mxCell>
        <mxCell id="XWMNKZMhFV5grl7TRYzP-90" value="[Handle Situation]" style="text;html=1;align=center;verticalAlign=middle;resizable=0;points=[];autosize=1;" vertex="1" parent="2">
          <mxGeometry x="110" y="698" width="110" height="20" as="geometry" />
        </mxCell>
        <mxCell id="XWMNKZMhFV5grl7TRYzP-91" value="" style="rhombus;whiteSpace=wrap;html=1;" vertex="1" parent="2">
          <mxGeometry x="204" y="718" width="50" height="60" as="geometry" />
        </mxCell>
        <mxCell id="XWMNKZMhFV5grl7TRYzP-93" style="edgeStyle=orthogonalEdgeStyle;rounded=0;orthogonalLoop=1;jettySize=auto;html=1;strokeColor=#FF0000;entryX=0.5;entryY=0;entryDx=0;entryDy=0;exitX=1;exitY=0.5;exitDx=0;exitDy=0;" edge="1" parent="2" source="XWMNKZMhFV5grl7TRYzP-83" target="XWMNKZMhFV5grl7TRYzP-91">
          <mxGeometry relative="1" as="geometry">
            <mxPoint x="210.00199999999998" y="725.005" as="targetPoint" />
            <mxPoint x="130.77" y="695.49" as="sourcePoint" />
            <Array as="points">
              <mxPoint x="114" y="696" />
              <mxPoint x="229" y="696" />
            </Array>
          </mxGeometry>
        </mxCell>
        <mxCell id="XWMNKZMhFV5grl7TRYzP-95" value="[shoot]" style="text;html=1;align=center;verticalAlign=middle;resizable=0;points=[];autosize=1;" vertex="1" parent="2">
          <mxGeometry x="230" y="770" width="50" height="20" as="geometry" />
        </mxCell>
        <mxCell id="XWMNKZMhFV5grl7TRYzP-96" style="edgeStyle=orthogonalEdgeStyle;rounded=0;orthogonalLoop=1;jettySize=auto;html=1;strokeColor=#FF0000;entryX=1;entryY=0;entryDx=0;entryDy=0;" edge="1" parent="2" source="XWMNKZMhFV5grl7TRYzP-91" target="XWMNKZMhFV5grl7TRYzP-83">
          <mxGeometry relative="1" as="geometry">
            <mxPoint x="260" y="650" as="targetPoint" />
            <Array as="points">
              <mxPoint x="260" y="748" />
              <mxPoint x="260" y="650" />
              <mxPoint x="103" y="650" />
            </Array>
          </mxGeometry>
        </mxCell>
        <mxCell id="XWMNKZMhFV5grl7TRYzP-97" value="[no shoot]" style="text;html=1;align=center;verticalAlign=middle;resizable=0;points=[];autosize=1;" vertex="1" parent="2">
          <mxGeometry x="150" y="630" width="70" height="20" as="geometry" />
        </mxCell>
        <mxCell id="3" value="GunSystem" style="swimlane;whiteSpace=wrap" parent="1" vertex="1">
          <mxGeometry x="300" y="40" width="280" height="1070" as="geometry" />
        </mxCell>
        <mxCell id="XWMNKZMhFV5grl7TRYzP-43" value="Control Battery Level" style="rounded=1;whiteSpace=wrap;html=1;" vertex="1" parent="3">
          <mxGeometry x="55.5" y="230" width="120" height="60" as="geometry" />
        </mxCell>
        <mxCell id="XWMNKZMhFV5grl7TRYzP-48" value="" style="endArrow=classic;html=1;strokeColor=#FF0000;" edge="1" parent="3">
          <mxGeometry width="50" height="50" relative="1" as="geometry">
            <mxPoint x="115.5" y="212" as="sourcePoint" />
            <mxPoint x="116" y="230" as="targetPoint" />
          </mxGeometry>
        </mxCell>
        <mxCell id="XWMNKZMhFV5grl7TRYzP-49" value="" style="endArrow=classic;html=1;strokeColor=#FF0000;exitX=0.5;exitY=1;exitDx=0;exitDy=0;" edge="1" parent="3" source="XWMNKZMhFV5grl7TRYzP-43">
          <mxGeometry width="50" height="50" relative="1" as="geometry">
            <mxPoint x="115" y="345" as="sourcePoint" />
            <mxPoint x="116" y="320" as="targetPoint" />
          </mxGeometry>
        </mxCell>
        <mxCell id="XWMNKZMhFV5grl7TRYzP-51" value="Update location" style="rounded=1;whiteSpace=wrap;html=1;" vertex="1" parent="3">
          <mxGeometry x="60" y="320" width="120" height="60" as="geometry" />
        </mxCell>
        <mxCell id="XWMNKZMhFV5grl7TRYzP-52" value="" style="endArrow=classic;html=1;strokeColor=#FF0000;" edge="1" parent="3">
          <mxGeometry width="50" height="50" relative="1" as="geometry">
            <mxPoint x="116" y="380" as="sourcePoint" />
            <mxPoint x="116" y="410" as="targetPoint" />
          </mxGeometry>
        </mxCell>
        <mxCell id="XWMNKZMhFV5grl7TRYzP-54" value="LCD Display" style="rounded=1;whiteSpace=wrap;html=1;" vertex="1" parent="3">
          <mxGeometry x="60" y="410" width="120" height="60" as="geometry" />
        </mxCell>
        <mxCell id="XWMNKZMhFV5grl7TRYzP-76" value="create Message" style="rounded=1;whiteSpace=wrap;html=1;" vertex="1" parent="3">
          <mxGeometry x="55.5" y="780" width="120" height="60" as="geometry" />
        </mxCell>
        <mxCell id="XWMNKZMhFV5grl7TRYzP-75" style="edgeStyle=orthogonalEdgeStyle;rounded=0;orthogonalLoop=1;jettySize=auto;html=1;strokeColor=#FF0000;entryX=0.5;entryY=0;entryDx=0;entryDy=0;" edge="1" parent="3" source="XWMNKZMhFV5grl7TRYzP-54" target="XWMNKZMhFV5grl7TRYzP-76">
          <mxGeometry relative="1" as="geometry">
            <mxPoint x="120" y="650" as="targetPoint" />
            <Array as="points">
              <mxPoint x="116" y="628" />
            </Array>
          </mxGeometry>
        </mxCell>
        <mxCell id="XWMNKZMhFV5grl7TRYzP-87" value="" style="html=1;points=[];perimeter=orthogonalPerimeter;fillColor=#000000;strokeColor=none;rotation=90;" vertex="1" parent="3">
          <mxGeometry x="90" y="590" width="5" height="732.5" as="geometry" />
        </mxCell>
        <mxCell id="4" value="LocalDistributor" style="swimlane;whiteSpace=wrap" parent="1" vertex="1">
          <mxGeometry x="580" y="40" width="225.5" height="1070" as="geometry" />
        </mxCell>
        <mxCell id="XWMNKZMhFV5grl7TRYzP-56" value="Update user state" style="rounded=1;whiteSpace=wrap;html=1;" vertex="1" parent="4">
          <mxGeometry x="80" y="330" width="120" height="60" as="geometry" />
        </mxCell>
        <mxCell id="XWMNKZMhFV5grl7TRYzP-79" value="receive Message" style="rounded=1;whiteSpace=wrap;html=1;" vertex="1" parent="4">
          <mxGeometry x="80" y="790" width="120" height="40" as="geometry" />
        </mxCell>
        <mxCell id="XWMNKZMhFV5grl7TRYzP-81" value="send Backup Team" style="rounded=1;whiteSpace=wrap;html=1;" vertex="1" parent="4">
          <mxGeometry x="80" y="875" width="120" height="45" as="geometry" />
        </mxCell>
        <mxCell id="38" value="" style="ellipse;shape=endState;fillColor=#000000;strokeColor=#ff0000" parent="4" vertex="1">
          <mxGeometry x="115" y="1020" width="30" height="30" as="geometry" />
        </mxCell>
        <mxCell id="XWMNKZMhFV5grl7TRYzP-55" style="edgeStyle=orthogonalEdgeStyle;rounded=0;orthogonalLoop=1;jettySize=auto;html=1;strokeColor=#FF0000;entryX=0;entryY=0.25;entryDx=0;entryDy=0;" edge="1" parent="1" source="XWMNKZMhFV5grl7TRYzP-51" target="XWMNKZMhFV5grl7TRYzP-56">
          <mxGeometry relative="1" as="geometry">
            <mxPoint x="660" y="422" as="targetPoint" />
            <Array as="points">
              <mxPoint x="530" y="385" />
              <mxPoint x="530" y="385" />
            </Array>
          </mxGeometry>
        </mxCell>
        <mxCell id="XWMNKZMhFV5grl7TRYzP-69" style="edgeStyle=orthogonalEdgeStyle;rounded=0;orthogonalLoop=1;jettySize=auto;html=1;strokeColor=#FF0000;" edge="1" parent="1" source="XWMNKZMhFV5grl7TRYzP-66">
          <mxGeometry relative="1" as="geometry">
            <mxPoint x="112" y="710" as="targetPoint" />
          </mxGeometry>
        </mxCell>
        <mxCell id="XWMNKZMhFV5grl7TRYzP-77" style="edgeStyle=orthogonalEdgeStyle;rounded=0;orthogonalLoop=1;jettySize=auto;html=1;strokeColor=#FF0000;" edge="1" parent="1" source="XWMNKZMhFV5grl7TRYzP-74" target="XWMNKZMhFV5grl7TRYzP-76">
          <mxGeometry relative="1" as="geometry">
            <Array as="points">
              <mxPoint x="280" y="855" />
              <mxPoint x="280" y="855" />
            </Array>
          </mxGeometry>
        </mxCell>
        <mxCell id="XWMNKZMhFV5grl7TRYzP-78" style="edgeStyle=orthogonalEdgeStyle;rounded=0;orthogonalLoop=1;jettySize=auto;html=1;strokeColor=#FF0000;" edge="1" parent="1" source="XWMNKZMhFV5grl7TRYzP-76" target="XWMNKZMhFV5grl7TRYzP-79">
          <mxGeometry relative="1" as="geometry">
            <mxPoint x="610" y="855" as="targetPoint" />
            <Array as="points">
              <mxPoint x="620" y="855" />
              <mxPoint x="620" y="855" />
            </Array>
          </mxGeometry>
        </mxCell>
        <mxCell id="XWMNKZMhFV5grl7TRYzP-80" style="edgeStyle=orthogonalEdgeStyle;rounded=0;orthogonalLoop=1;jettySize=auto;html=1;strokeColor=#FF0000;" edge="1" parent="1" source="XWMNKZMhFV5grl7TRYzP-79">
          <mxGeometry relative="1" as="geometry">
            <mxPoint x="720" y="915" as="targetPoint" />
            <Array as="points">
              <mxPoint x="720" y="915" />
            </Array>
          </mxGeometry>
        </mxCell>
        <mxCell id="39" value="" style="endArrow=open;strokeColor=#FF0000;endFill=1;rounded=0;exitX=0.85;exitY=0.065;exitDx=0;exitDy=0;exitPerimeter=0;" parent="1" source="XWMNKZMhFV5grl7TRYzP-87" target="38" edge="1">
          <mxGeometry relative="1" as="geometry">
            <mxPoint x="135" y="990" as="sourcePoint" />
          </mxGeometry>
        </mxCell>
        <mxCell id="XWMNKZMhFV5grl7TRYzP-89" style="edgeStyle=orthogonalEdgeStyle;rounded=0;orthogonalLoop=1;jettySize=auto;html=1;strokeColor=#FF0000;" edge="1" parent="1" source="XWMNKZMhFV5grl7TRYzP-81">
          <mxGeometry relative="1" as="geometry">
            <mxPoint x="722" y="990" as="targetPoint" />
            <Array as="points">
              <mxPoint x="722" y="990" />
              <mxPoint x="722" y="990" />
            </Array>
          </mxGeometry>
        </mxCell>
        <mxCell id="XWMNKZMhFV5grl7TRYzP-94" style="edgeStyle=orthogonalEdgeStyle;rounded=0;orthogonalLoop=1;jettySize=auto;html=1;strokeColor=#FF0000;entryX=0;entryY=0.25;entryDx=0;entryDy=0;" edge="1" parent="1" source="XWMNKZMhFV5grl7TRYzP-91" target="XWMNKZMhFV5grl7TRYzP-76">
          <mxGeometry relative="1" as="geometry">
            <mxPoint x="249" y="850" as="targetPoint" />
            <Array as="points">
              <mxPoint x="249" y="835" />
            </Array>
          </mxGeometry>
        </mxCell>
      </root>
    </mxGraphModel>
  </diagram>
</mxfile>
